<svg width="98" height="19" viewBox="0 0 98 19" fill="none" xmlns="http://www.w3.org/2000/svg">
<path d="M9.86382 0.826904L11.8569 6.9611H18.3068L13.0888 10.7522L15.0819 16.8864L9.86382 13.0953L4.64576 16.8864L6.63888 10.7522L1.42082 6.9611H7.8707L9.86382 0.826904Z" fill="#FAD67B"/>
<path d="M30.04 0.826904L32.0331 6.9611H38.483L33.2649 10.7522L35.258 16.8864L30.04 13.0953L24.8219 16.8864L26.815 10.7522L21.597 6.9611H28.0468L30.04 0.826904Z" fill="#FAD67B"/>
<path d="M49.409 0.826904L51.4021 6.9611H57.852L52.6339 10.7522L54.627 16.8864L49.409 13.0953L44.1909 16.8864L46.184 10.7522L40.966 6.9611H47.4159L49.409 0.826904Z" fill="#FAD67B"/>
<path d="M69.5851 0.826904L71.5782 6.9611H78.0281L72.8101 10.7522L74.8032 16.8864L69.5851 13.0953L64.3671 16.8864L66.3602 10.7522L61.1421 6.9611H67.592L69.5851 0.826904Z" fill="#FAD67B"/>
<path d="M88.9541 0.826904L90.9473 6.9611H97.3971L92.1791 10.7522L94.1722 16.8864L88.9541 13.0953L83.7361 16.8864L85.7292 10.7522L80.5112 6.9611H86.961L88.9541 0.826904Z" fill="#FAD67B"/>
</svg>
