<svg width="26" height="26" viewBox="0 0 26 26" fill="none" xmlns="http://www.w3.org/2000/svg">
<path d="M0.428894 8.1485C0.512207 7.56013 0.575684 6.96839 0.68158 6.38428C1.28186 3.07587 3.62408 0.824896 6.97308 0.709539C11.0054 0.570989 15.0499 0.563665 19.0815 0.708929C22.7266 0.840155 25.3663 3.53913 25.4802 7.18537C25.6013 11.0571 25.6013 14.9384 25.4802 18.8101C25.3663 22.4564 22.7275 25.155 19.0818 25.2866C15.0502 25.4321 11.0048 25.4358 6.97339 25.2844C3.32776 25.1474 0.807617 22.4423 0.563782 18.7906C0.542725 18.4747 0.474976 18.1616 0.428894 17.8473C0.428894 14.6143 0.428894 11.3812 0.428894 8.1485ZM13.0034 23.1256C14.8484 23.1256 16.6954 23.1809 18.538 23.1128C21.4271 23.0057 23.2042 21.2814 23.2716 18.3951C23.3552 14.7986 23.3552 11.1972 23.2716 7.60041C23.2042 4.71467 21.4259 2.95014 18.538 2.8888C14.8726 2.81129 11.2031 2.8119 7.53766 2.8888C4.67175 2.94892 2.88953 4.67774 2.81171 7.53174C2.71283 11.1737 2.71283 14.8221 2.81171 18.4641C2.88953 21.3178 4.67175 23.0066 7.53796 23.1128C9.35742 23.1805 11.1815 23.1256 13.0034 23.1256Z" fill="#2DBC89"/>
<path d="M13 6.59326C9.46179 6.59326 6.59314 9.46161 6.59314 12.9998C6.59314 16.5383 9.46179 19.4067 13 19.4067C16.5385 19.4067 19.4069 16.5383 19.4069 12.9998C19.4069 9.46161 16.5385 6.59326 13 6.59326ZM13 17.2009C10.6797 17.2009 8.79895 15.3201 8.79895 12.9998C8.79895 10.6796 10.6797 8.79877 13 8.79877C15.3203 8.79877 17.2011 10.6796 17.2011 12.9998C17.2011 15.3201 15.3203 17.2009 13 17.2009Z" fill="#2DBC89"/>
<path d="M21.3051 6.30096C21.3051 7.14264 20.6227 7.82501 19.781 7.82501C18.9393 7.82501 18.2567 7.14264 18.2567 6.30096C18.2567 5.45898 18.9393 4.77661 19.781 4.77661C20.6227 4.77661 21.3051 5.45898 21.3051 6.30096Z" fill="#2DBC89"/>
</svg>
