<svg width="29" height="25" viewBox="0 0 29 25" fill="none" xmlns="http://www.w3.org/2000/svg">
<path d="M28.5521 0.880707C28.1979 0.447495 27.6673 0.208984 27.058 0.208984C26.7268 0.208984 26.3759 0.278679 26.0152 0.416519L1.46727 9.78722C0.164535 10.2844 -0.0109179 11.0304 0.00036595 11.4309C0.0116498 11.8314 0.229141 12.5664 1.55798 12.9892C1.56595 12.9916 1.57391 12.9941 1.58188 12.9963L6.67378 14.4534L9.42749 22.3278C9.80296 23.4013 10.6457 24.0682 11.6272 24.0682C12.246 24.0682 12.8547 23.8089 13.3875 23.3186L16.537 20.4186L21.1052 24.0969C21.1056 24.0974 21.1063 24.0976 21.1067 24.0981L21.1501 24.133C21.1541 24.1361 21.1583 24.1394 21.1623 24.1425C21.6701 24.5364 22.2243 24.7443 22.7657 24.7446H22.7659C23.8237 24.7446 24.666 23.9615 24.9114 22.75L28.9335 2.88946C29.0951 2.09229 28.9597 1.37897 28.5521 0.880707ZM8.3772 14.1767L18.201 9.15798L12.0841 15.6577C11.9838 15.7641 11.9128 15.8945 11.8779 16.0363L10.6984 20.814L8.3772 14.1767ZM12.2363 22.0685C12.1956 22.1059 12.1546 22.1393 12.1137 22.1701L13.208 17.7379L15.1986 19.3409L12.2363 22.0685ZM27.2682 2.55205L23.246 22.4128C23.2073 22.6028 23.0836 23.0451 22.7657 23.0451C22.6086 23.0451 22.4112 22.9595 22.2092 22.8039L17.0328 18.636C17.0322 18.6353 17.0313 18.6347 17.0304 18.6342L13.9503 16.154L22.7962 6.75452C23.0794 6.45361 23.1051 5.99274 22.8571 5.66219C22.6088 5.33164 22.159 5.22765 21.7911 5.41572L7.24196 12.8485L2.0808 11.3718L26.6212 2.00401C26.8286 1.9248 26.9733 1.9082 27.058 1.9082C27.11 1.9082 27.2025 1.9144 27.2368 1.95666C27.2819 2.01175 27.3394 2.19959 27.2682 2.55205Z" fill="#2DBC89"/>
</svg>
