<svg width="24" height="24" viewBox="0 0 24 24" fill="none" xmlns="http://www.w3.org/2000/svg">
<path fill-rule="evenodd" clip-rule="evenodd" d="M19.9588 4.00809C17.8539 1.90063 15.0544 0.739517 12.072 0.738281C5.92656 0.738281 0.925034 5.73967 0.922562 11.8868C0.921738 13.8518 1.43507 15.77 2.4108 17.4608L0.829041 23.2383L6.73955 21.6878C8.36813 22.5762 10.2016 23.0444 12.0675 23.0449H12.0722C18.217 23.0449 23.219 18.0431 23.2214 11.8957C23.2226 8.9165 22.064 6.1154 19.9588 4.00809ZM12.072 21.162H12.0682C10.4054 21.1613 8.77463 20.7144 7.35162 19.8703L7.01338 19.6694L3.506 20.5895L4.44217 17.1698L4.22176 16.8192C3.2941 15.3438 2.80424 13.6384 2.80507 11.8875C2.80699 6.77815 6.96422 2.62134 12.0757 2.62134C14.551 2.62216 16.8777 3.58731 18.6273 5.33894C20.3769 7.09058 21.3398 9.41885 21.339 11.895C21.3368 17.0048 17.1799 21.162 12.072 21.162ZM17.1551 14.2215C16.8766 14.082 15.5069 13.4083 15.2515 13.3152C14.9963 13.2222 14.8104 13.1759 14.6248 13.4547C14.439 13.7335 13.9052 14.3611 13.7426 14.5469C13.58 14.7328 13.4177 14.7561 13.1391 14.6166C12.8604 14.4772 11.9629 14.1829 10.8987 13.2339C10.0706 12.4952 9.51154 11.5829 9.34894 11.3041C9.18661 11.0251 9.34756 10.8888 9.47116 10.7356C9.77274 10.3611 10.0747 9.96844 10.1676 9.78264C10.2605 9.59669 10.214 9.43396 10.1442 9.29457C10.0747 9.15518 9.51758 7.78395 9.28549 7.22598C9.05917 6.68298 8.8297 6.75632 8.65858 6.7478C8.49626 6.7397 8.31046 6.73805 8.12465 6.73805C7.93898 6.73805 7.63713 6.80768 7.3817 7.08673C7.1264 7.36565 6.4068 8.03952 6.4068 9.41075C6.4068 10.782 7.40504 12.1067 7.5443 12.2926C7.68355 12.4785 9.50879 15.2924 12.3033 16.499C12.968 16.7863 13.4868 16.9575 13.8915 17.0859C14.5589 17.298 15.1661 17.268 15.6462 17.1963C16.1815 17.1163 17.2943 16.5223 17.5266 15.8717C17.7587 15.2209 17.7587 14.6632 17.6889 14.5469C17.6194 14.4307 17.4336 14.3611 17.1551 14.2215Z" fill="#2DBC89"/>
</svg>
