<svg width="64" height="64" viewBox="0 0 64 64" fill="none" xmlns="http://www.w3.org/2000/svg">
<path d="M28.082 36.5894H3.9585C2.85547 36.5894 2.85547 34.9219 3.9585 34.9219H25.7446C26.9844 34.9219 26.9858 33.0474 25.7446 33.0474H5.80664V5.41699H56.7046V33.0474H50.6709C49.4316 33.0474 49.4292 34.9219 50.6709 34.9219H58.8921C59.9946 34.9219 59.9946 36.5894 58.8921 36.5894H48.501C47.2617 36.5894 47.2598 38.4644 48.501 38.4644H58.8921C60.3853 38.4644 61.6001 37.249 61.6001 35.7559C61.6001 34.2622 60.3853 33.0474 58.8921 33.0474H58.5796V5.41699H58.8921C60.3853 5.41699 61.6001 4.20166 61.6001 2.7085C61.6001 1.21484 60.3853 0 58.8921 0H3.9585C2.46484 0 1.25 1.21484 1.25 2.7085C1.25 4.19287 2.45068 5.40234 3.93164 5.41699V33.0474C2.45068 33.062 1.25 34.271 1.25 35.7559C1.25 37.249 2.46484 38.4644 3.9585 38.4644H28.082C29.3213 38.4644 29.3232 36.5894 28.082 36.5894ZM3.9585 1.875H58.8921C59.9946 1.875 59.9946 3.54199 58.8921 3.54199H3.9585C2.85498 3.54199 2.85645 1.875 3.9585 1.875Z" fill="black"/>
<path d="M17.3848 8.80811C17.3848 7.98486 16.7148 7.31543 15.8916 7.31543H10.0063C9.18311 7.31543 8.51367 7.98486 8.51367 8.80811V12.4438C8.51367 13.2671 9.18311 13.9365 10.0063 13.9365H15.8916C16.7148 13.9365 17.3848 13.2671 17.3848 12.4438V8.80811ZM15.5098 12.0615H10.3882V9.18994H15.5098V12.0615Z" fill="black"/>
<path d="M17.3848 17.4961C17.3848 16.6729 16.7148 16.0034 15.8916 16.0034H10.0063C9.18311 16.0034 8.51367 16.6729 8.51367 17.4961V21.1318C8.51367 21.9551 9.18311 22.6245 10.0063 22.6245H15.8916C16.7148 22.6245 17.3848 21.9551 17.3848 21.1318V17.4961ZM15.5098 20.7495H10.3882V17.8779H15.5098V20.7495Z" fill="black"/>
<path d="M15.8916 24.6913H10.0063C9.18311 24.6913 8.51367 25.3608 8.51367 26.184V29.8198C8.51367 30.643 9.18311 31.3124 10.0063 31.3124H15.8916C16.7148 31.3124 17.3848 30.643 17.3848 29.8198V26.184C17.3848 25.3608 16.7148 24.6913 15.8916 24.6913ZM15.5098 29.4379H10.3882V26.5659H15.5098V29.4379Z" fill="black"/>
<path d="M57.0441 42.5977C56.0231 42.1587 54.9523 41.8452 53.8615 41.6328L44.3629 39.7861V37.439C47.0304 35.6196 48.4742 33.0425 48.7887 30.1484C50.173 30.0386 51.2662 28.877 51.2662 27.4648V25.5381C53.5236 24.5566 53.2184 21.2627 50.8302 20.707V19.9629C50.8302 13.2778 45.4108 7.85791 38.7252 7.85791H37.7106C31.025 7.85791 25.6056 13.2778 25.6056 19.9629V20.7065C23.2184 21.2622 22.9122 24.5566 25.17 25.5381V27.4644C25.17 28.877 26.2628 30.0386 27.6476 30.1479C27.9606 33.0288 29.3868 35.6064 32.0734 37.439V39.7856L22.5748 41.6328C21.484 41.8452 20.4132 42.1582 19.3922 42.5977C15.5382 44.2563 13.6578 46.9043 13.6578 50.6445V52.5703C13.6578 53.8096 15.5323 53.8115 15.5323 52.5703V50.645C15.5323 47.8359 16.8087 45.8936 19.6085 44.5518C19.7213 45.0508 21.4391 49.7134 21.4391 56.228V62.1255H17.4777C16.4034 62.1255 15.5323 61.2544 15.5323 60.1802V56.3003C15.5323 55.061 13.6578 55.0591 13.6578 56.3003V60.1802C13.6578 62.29 15.3678 64 17.4777 64H58.9586C61.0685 64 62.7784 62.29 62.7784 60.1802V50.645C62.7784 46.9043 60.8976 44.2563 57.0441 42.5977ZM55.0797 43.855C54.9493 44.4272 53.1222 49.3462 53.1222 56.228V62.1255H39.1554V57.4023C39.1554 55.998 39.5826 54.6484 40.3907 53.5C41.6012 51.7788 46.587 44.585 48.0656 42.416C54.795 43.771 53.9835 43.4902 55.0797 43.855ZM37.5787 52.4209C36.8595 51.3984 35.9254 50.0566 34.9503 48.6504C35.2399 48.5864 35.5226 48.4751 35.7877 48.3164L38.2179 46.8589L40.6481 48.3164C40.9132 48.4751 41.1959 48.5864 41.4855 48.6504C40.5114 50.0562 39.5773 51.3975 38.8575 52.4209C38.6178 52.7617 38.4044 53.1162 38.2179 53.4819C38.0319 53.1162 37.8185 52.7617 37.5787 52.4209ZM36.3043 45.8203C34.8199 46.6152 34.9254 46.853 34.2511 46.7729C33.8317 46.7231 33.4552 46.4897 33.215 46.1421C32.0944 44.519 31.0568 43.0132 30.3776 42.0254L32.255 41.6606C32.8615 43.5024 34.86 44.9673 36.3043 45.8203ZM46.0587 42.0259C45.3776 43.0156 44.3375 44.5259 43.214 46.1528C42.7555 46.8159 41.9337 46.9009 41.6124 46.708L40.1315 45.8203C41.5763 44.9673 43.5743 43.5024 44.1808 41.6606L46.0587 42.0259ZM32.7579 11.0137V12.1895C32.7579 13.4287 34.6324 13.4307 34.6324 12.1895V10.2061C35.4738 9.93994 36.3619 9.78027 37.2809 9.74219V14.3774C37.2809 15.6167 39.1554 15.6187 39.1554 14.3774V9.74219C40.0743 9.78027 40.9625 9.94043 41.8033 10.2061V12.1895C41.8033 13.4287 43.6783 13.4307 43.6783 12.1895V11.0142C49.5387 14.27 48.9156 20.4927 48.9557 20.6411H27.4806C27.5128 20.5205 26.9279 14.2534 32.7579 11.0137ZM26.1847 22.5156H50.2516C51.1505 22.5156 51.149 23.8735 50.2516 23.8735H26.1847C25.2858 23.8735 25.2872 22.5156 26.1847 22.5156ZM29.463 29.1992C29.4518 28.6895 29.0358 28.2822 28.5255 28.2822C28.3693 28.2432 27.045 28.5254 27.045 27.4648V25.7485H49.3917V27.4648C49.3917 28.5239 48.0314 28.252 47.9108 28.2822C47.4005 28.2822 46.984 28.6895 46.9733 29.1992C46.923 31.543 45.9274 33.7197 44.2408 35.1714C40.6608 38.2539 35.776 38.2544 32.1954 35.1714C30.5089 33.7197 29.5128 31.5425 29.463 29.1992ZM42.4879 38.4741V40.5586C42.4879 42.2349 39.6432 44.0098 38.2179 44.7271C36.7941 44.0103 33.9557 42.2397 33.9479 40.5654C33.9479 40.5635 33.9479 40.561 33.9479 40.5586V38.4741C36.6764 39.6509 39.7565 39.6523 42.4879 38.4741ZM21.3566 43.855C22.4513 43.4912 21.6378 43.7715 28.3702 42.416L28.9059 43.1943C29.4523 43.9888 30.2086 45.0869 31.047 46.3018C32.5763 48.5186 34.6857 51.5669 36.0455 53.4995C36.8536 54.6484 37.2809 55.9976 37.2809 57.4023V62.125H23.3141V56.2275C23.3141 49.1689 21.5314 44.6245 21.3566 43.855ZM60.9034 60.1802C60.9034 61.2524 60.0314 62.125 58.9586 62.125H54.9972V56.228C54.9972 49.8921 56.7584 44.8584 56.8282 44.5518C59.6276 45.8936 60.9039 47.8359 60.9039 50.645V60.1802H60.9034Z" fill="black"/>
<path d="M43.3281 54.223C42.4443 54.223 41.7251 54.9423 41.7251 55.826V57.7045C41.7251 58.5887 42.4443 59.3075 43.3281 59.3075H48.8413C49.7251 59.3075 50.4443 58.5887 50.4443 57.7045V55.826C50.4443 54.9423 49.7251 54.223 48.8413 54.223H43.3281ZM48.5693 57.4325H43.6001V56.098H48.5693V57.4325Z" fill="black"/>
</svg>
