<svg width="68" height="66" viewBox="0 0 68 66" fill="none" xmlns="http://www.w3.org/2000/svg">
<path d="M67.8689 36.1411C67.2584 30 64.5148 24.2105 60.1434 19.8389C56.4075 16.1032 51.835 13.7026 47.0237 12.6352V9.26062C48.9888 8.77173 50.4495 6.99295 50.4495 4.87867C50.4495 2.38866 48.4238 0.362976 45.9338 0.362976H36.3711C33.8811 0.362976 31.8554 2.38866 31.8554 4.87867C31.8554 6.99281 33.3161 8.7716 35.2811 9.26062V12.6446C30.4845 13.7166 25.9271 16.1139 22.2019 19.839C21.3867 20.6543 20.635 21.5094 19.9469 22.3982C19.9136 22.3957 19.8802 22.3932 19.8462 22.3932H10.3817C9.64831 22.3932 9.05357 22.9878 9.05357 23.7213C9.05357 24.4549 9.64831 25.0495 10.3817 25.0495H18.1397C17.1659 26.6798 16.3807 28.3919 15.783 30.1544H1.32815C0.594744 30.1544 0 30.749 0 31.4825C0 32.216 0.594744 32.8106 1.32815 32.8106H15.0325C14.6497 34.4909 14.43 36.2009 14.3733 37.9156H8.50013C7.76673 37.9156 7.17199 38.5102 7.17199 39.2438C7.17199 39.9773 7.76673 40.5719 8.50013 40.5719H14.4157C14.5278 42.2911 14.8042 44.0012 15.245 45.6769H6.64073C5.90733 45.6769 5.31258 46.2715 5.31258 47.0051C5.31258 47.7386 5.90733 48.3332 6.64073 48.3332H16.0926C17.3955 51.7799 19.4317 55.0103 22.2019 57.7806C26.5777 62.1563 32.3732 64.9005 38.5206 65.5079C39.398 65.5945 40.276 65.6374 41.1529 65.6374C46.3355 65.6374 51.4524 64.1375 55.7941 61.3101C56.4087 60.9098 56.5826 60.087 56.1823 59.4724C55.782 58.8577 54.9592 58.6839 54.3445 59.0842C44.8407 65.2729 32.1127 63.9348 24.0802 55.9023C14.6554 46.4775 14.6554 31.1424 24.0802 21.7174C33.5049 12.2928 48.84 12.2928 58.265 21.7174C66.2868 29.7394 67.6322 42.4566 61.4639 51.9557C61.0644 52.5709 61.2393 53.3936 61.8544 53.793C62.4699 54.1925 63.2923 54.0175 63.6916 53.4023C66.9873 48.3268 68.4708 42.1968 67.8689 36.1411ZM34.5117 4.8788C34.5117 3.85348 35.3458 3.0194 36.3711 3.0194H45.9338C46.9591 3.0194 47.7932 3.85348 47.7932 4.8788C47.7932 5.90413 46.9591 6.73821 45.9338 6.73821H45.6955H36.6093H36.3711C35.3458 6.73821 34.5117 5.904 34.5117 4.8788ZM37.9374 12.188V9.3945H44.3674V12.1832C42.2322 11.9293 40.0721 11.9309 37.9374 12.188Z" fill="black"/>
<path d="M59.2047 55.5127C58.854 55.5127 58.5127 55.6548 58.2658 55.9018C58.0174 56.1489 57.8765 56.4915 57.8765 56.8408C57.8765 57.1901 58.0174 57.5328 58.2658 57.7798C58.5127 58.0282 58.8542 58.1689 59.2047 58.1689C59.5539 58.1689 59.8953 58.0282 60.1436 57.7798C60.3907 57.5328 60.5328 57.1901 60.5328 56.8408C60.5328 56.4915 60.3908 56.1489 60.1436 55.9018C59.8953 55.6548 59.5538 55.5127 59.2047 55.5127Z" fill="black"/>
<path d="M41.1727 18.2062C29.812 18.2062 20.5693 27.4488 20.5693 38.8096C20.5693 50.1705 29.812 59.413 41.1727 59.413C52.5334 59.413 61.7761 50.1705 61.7761 38.8096C61.7761 27.4488 52.5334 18.2062 41.1727 18.2062ZM41.1727 56.7567C31.2766 56.7567 23.2256 48.7056 23.2256 38.8096C23.2256 28.9136 31.2766 20.8625 41.1727 20.8625C51.0689 20.8625 59.1198 28.9136 59.1198 38.8096C59.1198 48.7056 51.0689 56.7567 41.1727 56.7567Z" fill="black"/>
<path d="M49.574 28.53L42.9957 35.1082C42.4456 34.8361 41.8268 34.6825 41.1727 34.6825C40.5184 34.6825 39.8998 34.8361 39.3497 35.1082L36.4056 32.164C35.8868 31.6454 35.0461 31.6454 34.5272 32.164C34.0085 32.6827 34.0085 33.5237 34.5272 34.0423L37.4713 36.9864C37.1991 37.5365 37.0456 38.1553 37.0456 38.8094C37.0456 41.0851 38.8969 42.9365 41.1727 42.9365C43.4484 42.9365 45.2997 41.0851 45.2997 38.8094C45.2997 38.1553 45.1461 37.5365 44.8741 36.9864L51.2593 30.6012L51.4522 30.4082C51.9709 29.8896 51.9709 29.0486 51.4522 28.53C50.9336 28.0113 50.0929 28.0113 49.574 28.53ZM41.1727 40.2804C40.3617 40.2804 39.7019 39.6205 39.7019 38.8096C39.7019 37.9986 40.3617 37.3388 41.1727 37.3388C41.9836 37.3388 42.6435 37.9986 42.6435 38.8096C42.6435 39.6205 41.9836 40.2804 41.1727 40.2804Z" fill="black"/>
<path d="M55.3732 37.4976H54.1427C53.4093 37.4976 52.8146 38.0922 52.8146 38.8257C52.8146 39.5593 53.4093 40.1539 54.1427 40.1539H55.3732C56.1066 40.1539 56.7013 39.5593 56.7013 38.8257C56.7013 38.0922 56.1066 37.4976 55.3732 37.4976Z" fill="black"/>
<path d="M28.2027 37.4653H26.9724C26.239 37.4653 25.6442 38.0599 25.6442 38.7934C25.6442 39.5269 26.239 40.1215 26.9724 40.1215H28.2027C28.9361 40.1215 29.5308 39.5269 29.5308 38.7934C29.5308 38.0599 28.9361 37.4653 28.2027 37.4653Z" fill="black"/>
<path d="M41.1888 27.1678C41.9222 27.1678 42.517 26.5731 42.517 25.8396V24.6093C42.517 23.8757 41.9222 23.2811 41.1888 23.2811C40.4555 23.2811 39.8607 23.8757 39.8607 24.6093V25.8396C39.8607 26.5731 40.4555 27.1678 41.1888 27.1678Z" fill="black"/>
<path d="M41.1563 50.4516C40.4229 50.4516 39.8282 51.0462 39.8282 51.7797V53.0101C39.8282 53.7436 40.4229 54.3382 41.1563 54.3382C41.8897 54.3382 42.4844 53.7436 42.4844 53.0101V51.7797C42.4844 51.0462 41.8897 50.4516 41.1563 50.4516Z" fill="black"/>
<path d="M1.32812 45.6765C0.978828 45.6765 0.636172 45.8186 0.389141 46.0656C0.142109 46.3126 0 46.6553 0 47.0046C0 47.3552 0.141977 47.6965 0.389141 47.9436C0.636305 48.1906 0.978828 48.3327 1.32812 48.3327C1.67742 48.3327 2.02008 48.1906 2.26698 47.9436C2.51401 47.6965 2.65625 47.3539 2.65625 47.0046C2.65625 46.6553 2.51414 46.3126 2.26698 46.0656C2.02008 45.8186 1.67742 45.6765 1.32812 45.6765Z" fill="black"/>
</svg>
